<svg width="839" height="835" viewBox="0 0 839 835" fill="none" xmlns="http://www.w3.org/2000/svg">
<rect x="5.87285" y="130.465" width="715" height="709" transform="rotate(-10 5.87285 130.465)" stroke="white" stroke-width="10"/>
<path d="M757 171H760V173H757L752 173.5L756.5 171H757Z" fill="#C4C4C4"/>
<rect x="67" y="68" width="705" height="699" fill="#D4C8BE" stroke="white" stroke-width="20"/>
<path d="M258.367 329.168C263.797 329.168 267.859 330.35 270.555 332.713C273.27 335.076 274.627 338.436 274.627 342.791C274.627 344.744 274.344 346.619 273.777 348.416C273.23 350.213 272.322 351.814 271.053 353.221C269.803 354.627 268.133 355.74 266.043 356.561C263.973 357.381 261.414 357.791 258.367 357.791H255.115V372H243.543V329.168H258.367ZM258.104 338.514H255.115V348.357H257.4C258.396 348.357 259.324 348.191 260.184 347.859C261.043 347.508 261.727 346.951 262.234 346.189C262.762 345.408 263.025 344.373 263.025 343.084C263.025 341.736 262.625 340.643 261.824 339.803C261.023 338.943 259.783 338.514 258.104 338.514ZM321.531 350.525C321.531 353.826 321.131 356.834 320.33 359.549C319.549 362.244 318.318 364.568 316.639 366.521C314.959 368.475 312.801 369.979 310.164 371.033C307.527 372.068 304.373 372.586 300.701 372.586C297.107 372.586 293.992 372.068 291.355 371.033C288.738 369.979 286.58 368.484 284.881 366.551C283.182 364.598 281.922 362.264 281.102 359.549C280.281 356.834 279.871 353.807 279.871 350.467C279.871 346.014 280.604 342.146 282.068 338.865C283.553 335.564 285.838 333.016 288.924 331.219C292.01 329.402 295.955 328.494 300.76 328.494C305.643 328.494 309.607 329.402 312.654 331.219C315.721 333.035 317.967 335.594 319.393 338.895C320.818 342.195 321.531 346.072 321.531 350.525ZM292.059 350.525C292.059 353.104 292.352 355.32 292.938 357.176C293.523 359.031 294.451 360.457 295.721 361.453C296.99 362.449 298.65 362.947 300.701 362.947C302.83 362.947 304.52 362.449 305.77 361.453C307.039 360.457 307.947 359.031 308.494 357.176C309.061 355.32 309.344 353.104 309.344 350.525C309.344 346.658 308.699 343.602 307.41 341.355C306.121 339.109 303.904 337.986 300.76 337.986C298.67 337.986 296.98 338.494 295.691 339.51C294.422 340.525 293.494 341.971 292.908 343.846C292.342 345.721 292.059 347.947 292.059 350.525ZM343.299 329.168C347.186 329.168 350.418 329.646 352.996 330.604C355.574 331.541 357.508 332.947 358.797 334.822C360.105 336.697 360.76 339.031 360.76 341.824C360.76 343.562 360.467 345.145 359.881 346.57C359.295 347.996 358.455 349.275 357.361 350.408C356.287 351.521 354.998 352.498 353.494 353.338L365.975 372H352.85L343.768 356.414H340.838V372H329.266V329.168H343.299ZM343.123 337.928H340.838V347.713H343.006C344.783 347.713 346.238 347.322 347.371 346.541C348.504 345.76 349.07 344.363 349.07 342.352C349.07 340.965 348.602 339.881 347.664 339.1C346.727 338.318 345.213 337.928 343.123 337.928ZM388.768 372H377.195V338.631H366.736V329.168H399.197V338.631H388.768V372ZM416.717 372H405.32V329.168H430.633V338.455H416.717V346.629H429.549V355.916H416.717V372ZM477.742 350.525C477.742 353.826 477.342 356.834 476.541 359.549C475.76 362.244 474.529 364.568 472.85 366.521C471.17 368.475 469.012 369.979 466.375 371.033C463.738 372.068 460.584 372.586 456.912 372.586C453.318 372.586 450.203 372.068 447.566 371.033C444.949 369.979 442.791 368.484 441.092 366.551C439.393 364.598 438.133 362.264 437.312 359.549C436.492 356.834 436.082 353.807 436.082 350.467C436.082 346.014 436.814 342.146 438.279 338.865C439.764 335.564 442.049 333.016 445.135 331.219C448.221 329.402 452.166 328.494 456.971 328.494C461.854 328.494 465.818 329.402 468.865 331.219C471.932 333.035 474.178 335.594 475.604 338.895C477.029 342.195 477.742 346.072 477.742 350.525ZM448.27 350.525C448.27 353.104 448.562 355.32 449.148 357.176C449.734 359.031 450.662 360.457 451.932 361.453C453.201 362.449 454.861 362.947 456.912 362.947C459.041 362.947 460.73 362.449 461.98 361.453C463.25 360.457 464.158 359.031 464.705 357.176C465.271 355.32 465.555 353.104 465.555 350.525C465.555 346.658 464.91 343.602 463.621 341.355C462.332 339.109 460.115 337.986 456.971 337.986C454.881 337.986 453.191 338.494 451.902 339.51C450.633 340.525 449.705 341.971 449.119 343.846C448.553 345.721 448.27 347.947 448.27 350.525ZM485.477 372V329.168H497.049V362.654H513.543V372H485.477ZM520.398 372V329.168H532.029V372H520.398ZM581.395 350.525C581.395 353.826 580.994 356.834 580.193 359.549C579.412 362.244 578.182 364.568 576.502 366.521C574.822 368.475 572.664 369.979 570.027 371.033C567.391 372.068 564.236 372.586 560.564 372.586C556.971 372.586 553.855 372.068 551.219 371.033C548.602 369.979 546.443 368.484 544.744 366.551C543.045 364.598 541.785 362.264 540.965 359.549C540.145 356.834 539.734 353.807 539.734 350.467C539.734 346.014 540.467 342.146 541.932 338.865C543.416 335.564 545.701 333.016 548.787 331.219C551.873 329.402 555.818 328.494 560.623 328.494C565.506 328.494 569.471 329.402 572.518 331.219C575.584 333.035 577.83 335.594 579.256 338.895C580.682 342.195 581.395 346.072 581.395 350.525ZM551.922 350.525C551.922 353.104 552.215 355.32 552.801 357.176C553.387 359.031 554.314 360.457 555.584 361.453C556.854 362.449 558.514 362.947 560.564 362.947C562.693 362.947 564.383 362.449 565.633 361.453C566.902 360.457 567.811 359.031 568.357 357.176C568.924 355.32 569.207 353.104 569.207 350.525C569.207 346.658 568.562 343.602 567.273 341.355C565.984 339.109 563.768 337.986 560.623 337.986C558.533 337.986 556.844 338.494 555.555 339.51C554.285 340.525 553.357 341.971 552.771 343.846C552.205 345.721 551.922 347.947 551.922 350.525ZM414.197 431.676C414.197 436.656 413.27 440.797 411.414 444.098C409.559 447.398 406.941 449.879 403.562 451.539C400.203 453.18 396.248 454 391.697 454H377.84V411.168H392.664C397.273 411.168 401.18 411.959 404.383 413.541C407.586 415.123 410.018 417.438 411.678 420.484C413.357 423.531 414.197 427.262 414.197 431.676ZM402.186 432.086C402.186 429.488 401.834 427.34 401.131 425.641C400.447 423.922 399.412 422.643 398.025 421.803C396.639 420.943 394.891 420.514 392.781 420.514H389.412V444.508H391.99C395.506 444.508 398.084 443.492 399.725 441.461C401.365 439.41 402.186 436.285 402.186 432.086ZM447.332 454H421.902V411.168H447.332V420.455H433.475V427.193H446.307V436.48H433.475V444.566H447.332V454ZM222.801 493.168C228.23 493.168 232.293 494.35 234.988 496.713C237.703 499.076 239.061 502.436 239.061 506.791C239.061 508.744 238.777 510.619 238.211 512.416C237.664 514.213 236.756 515.814 235.486 517.221C234.236 518.627 232.566 519.74 230.477 520.561C228.406 521.381 225.848 521.791 222.801 521.791H219.549V536H207.977V493.168H222.801ZM222.537 502.514H219.549V512.357H221.834C222.83 512.357 223.758 512.191 224.617 511.859C225.477 511.508 226.16 510.951 226.668 510.189C227.195 509.408 227.459 508.373 227.459 507.084C227.459 505.736 227.059 504.643 226.258 503.803C225.457 502.943 224.217 502.514 222.537 502.514ZM259.92 493.168C263.807 493.168 267.039 493.646 269.617 494.604C272.195 495.541 274.129 496.947 275.418 498.822C276.727 500.697 277.381 503.031 277.381 505.824C277.381 507.562 277.088 509.145 276.502 510.57C275.916 511.996 275.076 513.275 273.982 514.408C272.908 515.521 271.619 516.498 270.115 517.338L282.596 536H269.471L260.389 520.414H257.459V536H245.887V493.168H259.92ZM259.744 501.928H257.459V511.713H259.627C261.404 511.713 262.859 511.322 263.992 510.541C265.125 509.76 265.691 508.363 265.691 506.352C265.691 504.965 265.223 503.881 264.285 503.1C263.348 502.318 261.834 501.928 259.744 501.928ZM326.57 514.525C326.57 517.826 326.17 520.834 325.369 523.549C324.588 526.244 323.357 528.568 321.678 530.521C319.998 532.475 317.84 533.979 315.203 535.033C312.566 536.068 309.412 536.586 305.74 536.586C302.146 536.586 299.031 536.068 296.395 535.033C293.777 533.979 291.619 532.484 289.92 530.551C288.221 528.598 286.961 526.264 286.141 523.549C285.32 520.834 284.91 517.807 284.91 514.467C284.91 510.014 285.643 506.146 287.107 502.865C288.592 499.564 290.877 497.016 293.963 495.219C297.049 493.402 300.994 492.494 305.799 492.494C310.682 492.494 314.646 493.402 317.693 495.219C320.76 497.035 323.006 499.594 324.432 502.895C325.857 506.195 326.57 510.072 326.57 514.525ZM297.098 514.525C297.098 517.104 297.391 519.32 297.977 521.176C298.562 523.031 299.49 524.457 300.76 525.453C302.029 526.449 303.689 526.947 305.74 526.947C307.869 526.947 309.559 526.449 310.809 525.453C312.078 524.457 312.986 523.031 313.533 521.176C314.1 519.32 314.383 517.104 314.383 514.525C314.383 510.658 313.738 507.602 312.449 505.355C311.16 503.109 308.943 501.986 305.799 501.986C303.709 501.986 302.02 502.494 300.73 503.51C299.461 504.525 298.533 505.971 297.947 507.846C297.381 509.721 297.098 511.947 297.098 514.525ZM351.502 510.922H369.988V534.008C367.781 534.77 365.252 535.395 362.4 535.883C359.549 536.352 356.561 536.586 353.436 536.586C349.314 536.586 345.701 535.785 342.596 534.184C339.49 532.582 337.068 530.15 335.33 526.889C333.592 523.607 332.723 519.467 332.723 514.467C332.723 509.975 333.582 506.098 335.301 502.836C337.02 499.555 339.549 497.025 342.889 495.248C346.248 493.451 350.359 492.553 355.223 492.553C357.898 492.553 360.438 492.807 362.84 493.314C365.242 493.822 367.332 494.467 369.109 495.248L365.447 504.33C363.904 503.568 362.303 503.002 360.643 502.631C358.982 502.24 357.195 502.045 355.281 502.045C352.723 502.045 350.662 502.621 349.1 503.773C347.557 504.926 346.434 506.469 345.73 508.402C345.027 510.316 344.676 512.436 344.676 514.76C344.676 517.416 345.047 519.662 345.789 521.498C346.551 523.314 347.654 524.701 349.1 525.658C350.564 526.596 352.332 527.064 354.402 527.064C355.086 527.064 355.916 527.016 356.893 526.918C357.889 526.82 358.641 526.703 359.148 526.566V519.857H351.502V510.922ZM392.752 493.168C396.639 493.168 399.871 493.646 402.449 494.604C405.027 495.541 406.961 496.947 408.25 498.822C409.559 500.697 410.213 503.031 410.213 505.824C410.213 507.562 409.92 509.145 409.334 510.57C408.748 511.996 407.908 513.275 406.814 514.408C405.74 515.521 404.451 516.498 402.947 517.338L415.428 536H402.303L393.221 520.414H390.291V536H378.719V493.168H392.752ZM392.576 501.928H390.291V511.713H392.459C394.236 511.713 395.691 511.322 396.824 510.541C397.957 509.76 398.523 508.363 398.523 506.352C398.523 504.965 398.055 503.881 397.117 503.1C396.18 502.318 394.666 501.928 392.576 501.928ZM444.754 536H419.324V493.168H444.754V502.455H430.896V509.193H443.729V518.48H430.896V526.566H444.754V536ZM480.262 522.992C480.262 525.316 479.676 527.523 478.504 529.613C477.332 531.684 475.506 533.363 473.025 534.652C470.564 535.941 467.381 536.586 463.475 536.586C461.521 536.586 459.803 536.498 458.318 536.322C456.854 536.146 455.486 535.863 454.217 535.473C452.947 535.062 451.629 534.535 450.262 533.891V523.578C452.586 524.75 454.93 525.648 457.293 526.273C459.656 526.879 461.795 527.182 463.709 527.182C464.861 527.182 465.799 527.045 466.521 526.771C467.264 526.498 467.811 526.127 468.162 525.658C468.514 525.17 468.689 524.613 468.689 523.988C468.689 523.246 468.426 522.621 467.898 522.113C467.391 521.586 466.57 521.039 465.438 520.473C464.305 519.906 462.811 519.203 460.955 518.363C459.373 517.621 457.938 516.859 456.648 516.078C455.379 515.297 454.285 514.408 453.367 513.412C452.469 512.396 451.775 511.215 451.287 509.867C450.799 508.52 450.555 506.928 450.555 505.092C450.555 502.338 451.229 500.033 452.576 498.178C453.943 496.303 455.838 494.896 458.26 493.959C460.701 493.021 463.514 492.553 466.697 492.553C469.49 492.553 472 492.865 474.227 493.49C476.473 494.115 478.484 494.828 480.262 495.629L476.717 504.564C474.881 503.725 473.074 503.061 471.297 502.572C469.52 502.064 467.869 501.811 466.346 501.811C465.35 501.811 464.529 501.938 463.885 502.191C463.26 502.426 462.791 502.748 462.479 503.158C462.186 503.568 462.039 504.037 462.039 504.564C462.039 505.229 462.293 505.824 462.801 506.352C463.328 506.879 464.197 507.455 465.408 508.08C466.639 508.686 468.309 509.477 470.418 510.453C472.508 511.391 474.285 512.406 475.75 513.5C477.215 514.574 478.328 515.873 479.09 517.396C479.871 518.9 480.262 520.766 480.262 522.992ZM514.891 522.992C514.891 525.316 514.305 527.523 513.133 529.613C511.961 531.684 510.135 533.363 507.654 534.652C505.193 535.941 502.01 536.586 498.104 536.586C496.15 536.586 494.432 536.498 492.947 536.322C491.482 536.146 490.115 535.863 488.846 535.473C487.576 535.062 486.258 534.535 484.891 533.891V523.578C487.215 524.75 489.559 525.648 491.922 526.273C494.285 526.879 496.424 527.182 498.338 527.182C499.49 527.182 500.428 527.045 501.15 526.771C501.893 526.498 502.439 526.127 502.791 525.658C503.143 525.17 503.318 524.613 503.318 523.988C503.318 523.246 503.055 522.621 502.527 522.113C502.02 521.586 501.199 521.039 500.066 520.473C498.934 519.906 497.439 519.203 495.584 518.363C494.002 517.621 492.566 516.859 491.277 516.078C490.008 515.297 488.914 514.408 487.996 513.412C487.098 512.396 486.404 511.215 485.916 509.867C485.428 508.52 485.184 506.928 485.184 505.092C485.184 502.338 485.857 500.033 487.205 498.178C488.572 496.303 490.467 494.896 492.889 493.959C495.33 493.021 498.143 492.553 501.326 492.553C504.119 492.553 506.629 492.865 508.855 493.49C511.102 494.115 513.113 494.828 514.891 495.629L511.346 504.564C509.51 503.725 507.703 503.061 505.926 502.572C504.148 502.064 502.498 501.811 500.975 501.811C499.979 501.811 499.158 501.938 498.514 502.191C497.889 502.426 497.42 502.748 497.107 503.158C496.814 503.568 496.668 504.037 496.668 504.564C496.668 505.229 496.922 505.824 497.43 506.352C497.957 506.879 498.826 507.455 500.037 508.08C501.268 508.686 502.938 509.477 505.047 510.453C507.137 511.391 508.914 512.406 510.379 513.5C511.844 514.574 512.957 515.873 513.719 517.396C514.5 518.9 514.891 520.766 514.891 522.992ZM521.512 536V493.168H533.143V536H521.512ZM582.508 514.525C582.508 517.826 582.107 520.834 581.307 523.549C580.525 526.244 579.295 528.568 577.615 530.521C575.936 532.475 573.777 533.979 571.141 535.033C568.504 536.068 565.35 536.586 561.678 536.586C558.084 536.586 554.969 536.068 552.332 535.033C549.715 533.979 547.557 532.484 545.857 530.551C544.158 528.598 542.898 526.264 542.078 523.549C541.258 520.834 540.848 517.807 540.848 514.467C540.848 510.014 541.58 506.146 543.045 502.865C544.529 499.564 546.814 497.016 549.9 495.219C552.986 493.402 556.932 492.494 561.736 492.494C566.619 492.494 570.584 493.402 573.631 495.219C576.697 497.035 578.943 499.594 580.369 502.895C581.795 506.195 582.508 510.072 582.508 514.525ZM553.035 514.525C553.035 517.104 553.328 519.32 553.914 521.176C554.5 523.031 555.428 524.457 556.697 525.453C557.967 526.449 559.627 526.947 561.678 526.947C563.807 526.947 565.496 526.449 566.746 525.453C568.016 524.457 568.924 523.031 569.471 521.176C570.037 519.32 570.32 517.104 570.32 514.525C570.32 510.658 569.676 507.602 568.387 505.355C567.098 503.109 564.881 501.986 561.736 501.986C559.646 501.986 557.957 502.494 556.668 503.51C555.398 504.525 554.471 505.971 553.885 507.846C553.318 509.721 553.035 511.947 553.035 514.525ZM631.023 536H615.848L600.203 505.824H599.939C600.037 506.742 600.125 507.846 600.203 509.135C600.281 510.424 600.35 511.742 600.408 513.09C600.467 514.418 600.496 515.619 600.496 516.693V536H590.242V493.168H605.359L620.945 522.934H621.121C621.062 521.996 621.004 520.912 620.945 519.682C620.887 518.432 620.828 517.172 620.77 515.902C620.73 514.633 620.711 513.51 620.711 512.533V493.168H631.023V536Z" fill="#6D412A"/>
</svg>
 